<?xml version="1.0" standalone="no"?><!DOCTYPE svg PUBLIC "-//W3C//DTD SVG 1.1//EN" "http://www.w3.org/Graphics/SVG/1.1/DTD/svg11.dtd"><svg t="1656915822466" class="icon" viewBox="0 0 1024 1024" version="1.1" xmlns="http://www.w3.org/2000/svg" p-id="11534" xmlns:xlink="http://www.w3.org/1999/xlink" width="200" height="200"><defs><style type="text/css">@font-face { font-family: feedback-iconfont; src: url("//at.alicdn.com/t/font_1031158_u69w8yhxdu.woff2?t=1630033759944") format("woff2"), url("//at.alicdn.com/t/font_1031158_u69w8yhxdu.woff?t=1630033759944") format("woff"), url("//at.alicdn.com/t/font_1031158_u69w8yhxdu.ttf?t=1630033759944") format("truetype"); }
</style></defs><path d="M89.315556 394.808889l184.888888-187.164445a28.444444 28.444444 0 0 1 20.195556-8.533333h435.768889a28.444444 28.444444 0 0 1 20.195555 8.533333l184.888889 187.164445a28.444444 28.444444 0 0 1 1.564445 38.257778l-413.866667 492.657777a14.222222 14.222222 0 0 1-20.053333 1.706667l-1.848889-1.706667L87.751111 433.066667a28.444444 28.444444 0 0 1 1.564445-38.257778z" fill="#FFD491" p-id="11535"></path><path d="M512 199.111111L312.888889 412.444444h398.222222L512 199.111111z" fill="#FFE7C1" p-id="11536"></path><path d="M312.888889 412.444444l199.111111 554.666667 199.111111-554.666667H312.888889z" fill="#FFDBA3" p-id="11537"></path><path d="M711.111111 412.444444h265.386667L512 967.111111l199.111111-554.666667z" fill="#FFA768" p-id="11538"></path><path d="M312.888889 412.444444H56.888889l455.111111 554.666667-199.111111-554.666667z" fill="#FFA768" p-id="11539"></path></svg>