<?xml version="1.0" standalone="no"?><!DOCTYPE svg PUBLIC "-//W3C//DTD SVG 1.1//EN" "http://www.w3.org/Graphics/SVG/1.1/DTD/svg11.dtd"><svg t="1656915733815" class="icon" viewBox="0 0 1024 1024" version="1.1" xmlns="http://www.w3.org/2000/svg" p-id="9748" data-spm-anchor-id="a313x.7781069.0.i19" xmlns:xlink="http://www.w3.org/1999/xlink" width="200" height="200"><defs><style type="text/css">@font-face { font-family: feedback-iconfont; src: url("//at.alicdn.com/t/font_1031158_u69w8yhxdu.woff2?t=1630033759944") format("woff2"), url("//at.alicdn.com/t/font_1031158_u69w8yhxdu.woff?t=1630033759944") format("woff"), url("//at.alicdn.com/t/font_1031158_u69w8yhxdu.ttf?t=1630033759944") format("truetype"); }
</style></defs><path d="M937.984 364.032l-150.528-225.28c-18.432-27.136-48.64-43.52-81.92-43.52H317.952c-32.768 0-63.488 16.384-81.92 43.52l-150.528 225.28c-11.776 17.408-17.408 37.888-16.384 59.392 1.024 20.992 8.704 40.96 22.016 57.344l344.576 423.936c18.944 23.04 46.592 36.352 76.288 36.352 29.696 0 57.344-13.312 76.288-36.352l344.576-423.936c13.312-16.384 20.992-36.352 22.016-57.344 0.512-21.504-5.12-41.984-16.896-59.392z m-48.64 73.728l-351.232 432.128c-6.144 7.68-15.872 12.288-26.112 12.288-10.24 0-19.456-4.608-26.112-12.288L134.656 437.76c-9.216-11.264-10.24-27.136-2.048-39.424l153.088-229.888C291.84 159.232 302.08 153.6 313.344 153.6h396.288c11.264 0 21.504 5.632 27.648 14.848l153.6 229.376c8.192 12.288 7.68 28.16-1.536 39.936z m-7.68 1.536" fill="#FEB12A" p-id="9749" data-spm-anchor-id="a313x.7781069.0.i18" class="selected"></path><path d="M657.92 403.968c-13.312-10.752-33.28-8.704-44.032 5.12l-101.376 126.464-101.376-126.464c-10.752-13.312-30.72-15.872-44.032-5.12-13.312 10.752-15.872 30.72-5.12 44.032l125.952 157.184c6.144 7.68 14.848 11.776 24.576 11.776s18.432-4.096 24.576-11.776l125.952-157.184c10.752-13.312 8.704-32.768-5.12-44.032z m6.144-4.096" fill="#F22700" p-id="9750" data-spm-anchor-id="a313x.7781069.0.i16" class=""></path></svg>