<svg width="684" height="209" viewBox="0 0 684 209" fill="none" xmlns="http://www.w3.org/2000/svg">
<path d="M0 7.28091H3.02771L1.51385 1.36968H10.6691L12.1829 7.28091H13.8409V0.0720925H23.717V7.28091H25.3751L26.8889 1.36968H36.0441L34.5303 7.28091H37.558V13.8409H23.717V25.0867H13.8409V13.8409H0V7.28091ZM0 25.0867L2.451 15.6431H10.7411L8.29015 25.0867H0ZM26.8168 15.6431H35.107L37.558 25.0867H29.2678L26.8168 15.6431ZM0 45.8481C1.92235 45.6078 3.98888 45.3195 6.19959 44.9831C5.57482 44.7428 4.95006 44.5025 4.32529 44.2622C3.70053 43.9738 3.05173 43.6855 2.37891 43.3971V37.1254V35.6837H0V29.1236H2.37891V26.8889H11.1016V29.1236H26.4564V26.8889H35.179V29.1236H37.558V35.6837H35.179V37.1254V43.3971C34.5062 43.6855 33.8574 43.9738 33.2327 44.2622C32.6079 44.5025 31.9831 44.7428 31.3584 44.9831C33.5691 45.3195 35.6356 45.6078 37.558 45.8481V52.0477C33.9055 51.7593 30.6135 51.4229 27.6819 51.0385C24.7983 50.6059 21.8427 49.9812 18.815 49.1642C15.7393 49.9812 12.7356 50.6059 9.804 51.0385C6.92047 51.4229 3.65247 51.7593 0 52.0477V45.8481ZM11.1016 39.7206C12.3992 40.2493 13.6968 40.7058 14.9943 41.0903C16.2919 41.4748 17.5655 41.8592 18.815 42.2437C20.0646 41.8592 21.3141 41.4748 22.5636 41.0903C23.8612 40.7058 25.1588 40.2493 26.4564 39.7206V35.6837H11.1016V39.7206ZM63.2935 13.2642C63.2935 17.7818 62.6927 21.8427 61.4912 25.4471C60.3378 29.0035 58.7279 32.2475 56.6613 35.1791C57.6706 36.1402 58.7279 37.1014 59.8332 38.0626C60.9386 38.9757 62.092 39.9369 63.2935 40.9461V51.7593C61.0828 50.2215 58.9201 48.6355 56.8055 47.0015C54.739 45.3675 52.7926 43.6374 50.9664 41.8112C49.1401 43.6374 47.1938 45.3675 45.1272 47.0015C43.0607 48.6355 40.9221 50.2215 38.7114 51.7593V40.9461C39.9128 39.9369 41.0662 38.9757 42.1716 38.0626C43.277 37.1014 44.3343 36.1402 45.3435 35.1791C43.5173 32.4878 42.0274 29.5562 40.874 26.3843C39.7206 23.2124 39.0238 19.632 38.7835 15.6431H47.0015C47.1938 18.4786 47.6263 20.9536 48.2991 23.0682C49.02 25.1348 49.9331 27.0571 51.0385 28.8353C52.3841 26.8168 53.4174 24.5821 54.1382 22.1311C54.9072 19.632 55.2917 16.6764 55.2917 13.2642H51.9035H38.8555L43.1808 0.0720925H53.2732L51.3268 6.19959H63.2935V13.2642Z" fill="white"/>
<path d="M123.97 4.03695C125.075 4.03695 126.109 4.25321 127.07 4.68574C128.031 5.07021 128.872 5.62288 129.593 6.34377C130.314 7.06465 130.867 7.90568 131.251 8.86685C131.684 9.82803 131.9 10.8613 131.9 11.9666V17.3012H121.952V13.4084C121.952 12.7836 121.735 12.255 121.303 11.8225C120.87 11.3899 120.318 11.1737 119.645 11.1737H78.0499V17.3012H68.0296V4.03695H94.7744L92.9721 0H103.857L105.66 4.03695H123.97ZM101.551 30.4212L107.246 22.852H80.5009V15.7152H119.789V20.5451L112.868 30.4212H129.233V37.558H108.471V44.2622C108.471 45.3675 108.255 46.4008 107.822 47.362C107.438 48.3231 106.885 49.1642 106.164 49.8851C105.443 50.6059 104.602 51.1826 103.641 51.6152C102.68 51.9996 101.647 52.1919 100.541 52.1919H83.1682L85.9796 45.9202H96.2161C96.8409 45.9202 97.3695 45.7039 97.8021 45.2714C98.2346 44.8389 98.4509 44.3102 98.4509 43.6855V37.558H70.1923V30.4212H101.551Z" fill="white"/>
<path d="M227.258 44.8389V32.9443H203.541V25.8797H227.258V15.0664H202.603H202.675H201.378L204.982 1.58594H214.858L212.624 8.0018H227.258V0.216266H237.278V8.0018H263.302V15.0664H237.278V25.8797H260.995V32.9443H237.278V44.8389H262.581V51.9035H201.955V44.8389H227.258Z" fill="white"/>
<path d="M51.0385 117.6H0.216265V110.896H51.0385V117.6ZM3.6765 105.057H0L2.88353 78.2397H12.5434L11.8225 84.9439H63.2935V91.6481H11.1016L10.3807 98.4244H54.2103H62.933H63.0051V105.057H62.933L63.0051 123.655C63.0051 125.434 62.3803 126.947 61.1308 128.197C59.8813 129.446 58.3674 130.071 56.5893 130.071H42.46L44.911 124.16H52.6244C53.105 124.16 53.4895 124.016 53.7778 123.727C54.1142 123.391 54.2824 123.007 54.2824 122.574L54.2103 105.057H9.65982H3.6765Z" fill="white"/>
<path d="M105.515 80.4745H131.611V85.9532H103.425L102.344 88.8367H116.905H120.149C122.024 88.8367 123.61 89.5095 124.907 90.8552C126.253 92.1528 126.926 93.7387 126.926 95.613V116.158H131.611V121.565H68.318V116.158H73.0037V113.275V109.238V106.931V102.894V100.587V96.5502V94.3154V88.8367H83.024H92.1792L93.2605 85.9532H68.318V80.4745H95.3511L96.2882 78.0235H106.453L105.515 80.4745ZM83.024 102.894H116.905V100.587H83.024V102.894ZM83.024 109.238H116.905V106.931H83.024V109.238ZM116.905 116.158V113.275H83.024V116.158H116.905ZM116.905 96.1176C116.905 95.589 116.737 95.1565 116.401 94.82C116.064 94.4836 115.632 94.3154 115.103 94.3154H83.024V96.5502H116.905V96.1176ZM88.5748 123.223L83.024 130.287H71.4899L76.9686 123.223H88.5748ZM123.826 123.223L129.305 130.287H117.77L112.22 123.223H123.826Z" fill="white"/>
<path d="M152.64 130.215H136.564L161.146 117.023H136.636V109.959H167.418V94.0992H178.303V109.959H190.342H199.136V117.023H177.222L173.185 119.186H180.754L199.929 130.215H184.503L169.148 121.349L152.64 130.215ZM146.512 94.4596H136.564V81.3395H162.66L161.29 78.1677H172.103L173.473 81.3395H192.072C193.129 81.3395 194.138 81.5558 195.1 81.9883C196.061 82.3728 196.878 82.9255 197.551 83.6464C198.271 84.3672 198.824 85.2083 199.209 86.1695C199.641 87.1306 199.857 88.1399 199.857 89.1972V94.4596H189.981V90.6389C189.981 90.0142 189.765 89.4855 189.332 89.053C188.9 88.6205 188.371 88.4042 187.747 88.4042H146.512V94.4596Z" fill="white"/>
<path d="M262.408 87.3949H268.175V94.82H262.408V112.265C262.408 113.755 261.88 115.029 260.822 116.086C259.765 117.095 258.491 117.6 257.002 117.6H252.676H229.104V110.679V94.82H220.237V121.06C220.237 121.493 220.405 121.877 220.741 122.214C221.078 122.502 221.462 122.646 221.895 122.646H268.175L265.436 130.071H217.281C215.359 130.071 213.725 129.398 212.379 128.053C211.033 126.707 210.361 125.073 210.361 123.151V94.82H205.026V87.3949H210.361V78.3118H220.237V87.3949H229.104V78.3118H238.98L239.052 87.3949H252.676V78.3118H262.408V87.3949ZM252.676 94.82H239.052L239.124 108.589V110.175H251.162C251.595 110.175 251.955 110.031 252.244 109.742C252.532 109.454 252.676 109.094 252.676 108.661V94.82Z" fill="white"/>
<path d="M282.211 113.203H272.984L284.374 103.687H274.353V102.317V98.7128V97.271V85.0881V83.8626V78.6723H334.691V85.0881V95.8293C334.691 96.9346 334.475 97.9679 334.042 98.9291C333.658 99.8422 333.105 100.659 332.384 101.38C331.663 102.101 330.822 102.678 329.861 103.11C328.9 103.495 327.867 103.687 326.761 103.687H325.32L336.782 113.203H326.04V129.494H316.381V110.031H322.004L314.795 103.687H294.97L287.762 110.031H291.727V122.069L288.41 129.711H278.895L282.211 122.069V113.203ZM324.382 97.271C325.007 97.271 325.536 97.0548 325.968 96.6222C326.401 96.1897 326.617 95.6611 326.617 95.0363V93.8829H310.109V97.271H324.382ZM326.617 85.0881H310.109V88.5484H326.617V85.0881ZM282.499 85.0881V88.5484H300.377V85.0881H282.499ZM282.499 97.271H300.377V93.8829H282.499V97.271Z" fill="white"/>
<path d="M61.9959 208.239H1.36968V201.102H26.6726V194.686H4.03694V187.55H26.6726V182.071H2.37891V174.934H60.9145V182.071H36.6929V187.55H59.3286V194.686H36.6929V201.102H61.9959V208.239ZM0.0720882 171.834L8.14597 156.263H18.7429H55.0754L63.1493 171.834H52.6965L47.7945 162.391H15.499L10.5249 171.834H0.0720882Z" fill="white"/>
<path d="M94.8464 201.03V189.135H71.1294V182.071H94.8464V171.258H70.1923H70.2644H68.9668L72.5712 157.777H82.4473L80.2125 164.193H94.8464V156.407H104.867V164.193H130.891V171.258H104.867V182.071H128.584V189.135H104.867V201.03H130.17V208.095H69.5435V201.03H94.8464Z" fill="white"/>
<path d="M137.861 178.25H165.111V197.137C165.111 198.243 164.895 199.276 164.462 200.237C164.078 201.198 163.525 202.039 162.804 202.76C162.083 203.481 161.242 204.058 160.281 204.49C159.32 204.875 158.286 205.067 157.181 205.067H137.861V178.25ZM147.882 199.516H152.856C153.481 199.516 154.009 199.3 154.442 198.867C154.922 198.435 155.163 197.882 155.163 197.209V183.801H147.882V199.516ZM190.486 178.25C191.399 178.25 192.264 178.442 193.081 178.827C193.946 179.163 194.691 179.644 195.316 180.269C195.941 180.845 196.421 181.566 196.758 182.431C197.142 183.248 197.334 184.113 197.334 185.026V196.416C197.334 197.522 197.118 198.555 196.685 199.516C196.253 200.477 195.676 201.318 194.955 202.039C194.234 202.76 193.393 203.337 192.432 203.769C191.471 204.154 190.462 204.346 189.405 204.346H179.24L181.979 198.074H185.007C185.68 198.074 186.233 197.858 186.665 197.426C187.098 196.993 187.314 196.464 187.314 195.84V187.622C187.314 186.997 187.098 186.468 186.665 186.036C186.233 185.603 185.68 185.387 185.007 185.387H177.726V208.311H167.778V185.387V178.25H177.726H187.314H189.765H190.486ZM192.721 156.263L199.929 174.429H192V176.304H144.494V174.429H136.564L143.773 156.263H192.721ZM151.486 163.328L149.035 169.527H187.53L185.007 163.328H151.486Z" fill="white"/>
<path d="M260.822 156.191C261.88 156.191 262.865 156.383 263.778 156.768C264.691 157.152 265.484 157.705 266.157 158.426C266.83 159.099 267.358 159.892 267.743 160.805C268.127 161.718 268.319 162.679 268.319 163.688V200.381C268.319 201.487 268.103 202.52 267.671 203.481C267.286 204.442 266.734 205.283 266.013 206.004C265.292 206.725 264.451 207.302 263.49 207.734C262.528 208.119 261.519 208.311 260.462 208.311H253.469L254.695 202.111H256.064C256.737 202.111 257.29 201.895 257.723 201.463C258.155 201.03 258.371 200.477 258.371 199.805V165.563C258.371 164.938 258.155 164.409 257.723 163.977C257.29 163.544 256.737 163.328 256.064 163.328H214.83V208.239H204.81V156.191H209.063H258.371H260.822ZM253.469 193.821C253.469 194.927 253.253 195.96 252.821 196.921C252.436 197.882 251.883 198.723 251.162 199.444C250.442 200.165 249.601 200.742 248.639 201.174C247.678 201.559 246.645 201.751 245.54 201.751H218.074V198.363V196.2V184.738H219.876H226.508H245.107H251.162H253.469V193.821ZM242.8 196.2C243.473 196.2 244.026 195.984 244.458 195.551C244.891 195.119 245.107 194.566 245.107 193.893V191.082H226.508V196.2H242.8ZM231.482 176.592V173.997H218.074V168.446H231.482V165.707H240.133V168.446H253.469V173.997H240.133V176.592H255.055V182.071H216.488V176.592H231.482Z" fill="white"/>
<path d="M327.05 202.111C327.674 202.111 328.227 201.871 328.708 201.39C329.14 201.006 329.357 200.501 329.357 199.877V195.047H322.076V208.311H311.839V156.119H331.808C333.922 156.119 335.7 156.84 337.142 158.282C338.632 159.723 339.377 161.502 339.377 163.616V201.895C339.377 203.769 338.752 205.307 337.503 206.509C336.253 207.806 334.715 208.455 332.889 208.455H327.699L324.599 202.111H327.05ZM278.03 192.884V165.491H276.444V159.147H278.03V156.191H288.05V159.147H298.575V156.191H308.595V159.147H310.469V165.491H308.595V192.884H310.614V199.3H276.228V192.884H278.03ZM276.444 208.383L278.895 201.246H288.843L286.392 208.383H276.444ZM309.244 208.383H299.296L296.845 201.246H306.721L309.244 208.383ZM329.357 187.694V179.115H322.076V187.694H329.357ZM322.076 163.256V171.906H329.357V165.491C329.357 164.722 329.188 164.169 328.852 163.832C328.516 163.448 327.891 163.256 326.978 163.256H322.076ZM288.05 165.491V170.609H298.575V165.491H288.05ZM288.05 181.782H298.575V176.953H288.05V181.782ZM288.05 192.884H298.575V188.27H288.05V192.884Z" fill="white"/>
<path d="M365.673 156.191L362.429 161.958H375.549V200.309C375.549 201.414 375.333 202.448 374.9 203.409C374.516 204.37 373.963 205.211 373.242 205.932C372.521 206.653 371.68 207.23 370.719 207.662C369.758 208.047 368.749 208.239 367.691 208.239H347.29V161.958H351.616L354.932 156.191H365.673ZM363.294 201.102C363.967 201.102 364.52 200.886 364.952 200.453C365.385 200.021 365.601 199.492 365.601 198.867V190.505H357.311V201.102H363.294ZM365.601 169.095H357.311V183.44H365.601V169.095ZM390.183 160.805H410.728V161.237V167.942V200.453C410.728 201.559 410.512 202.592 410.079 203.553C409.647 204.514 409.07 205.355 408.349 206.076C407.628 206.797 406.787 207.374 405.826 207.806C404.865 208.191 403.856 208.383 402.798 208.383H383.407L386.218 202.111H398.473C399.098 202.111 399.627 201.895 400.059 201.463C400.492 201.03 400.708 200.501 400.708 199.877V167.942H387.804H385.353H377.351L381.316 156.191H391.769L390.183 160.805ZM388.092 189.352L381.388 175.583H391.913L398.617 189.352H388.092Z" fill="white"/>
<path d="M448.337 198.002C451.749 196.176 454.824 193.821 457.564 190.938C453.431 184.594 450.547 176.496 448.913 166.644H458.285C459.486 172.795 461.24 178.106 463.547 182.575C464.941 179.98 466.094 177.169 467.007 174.141C467.921 171.113 468.569 167.797 468.954 164.193H448.913V157.056H478.397V164.193C477.869 169.383 476.811 174.213 475.225 178.683C473.639 183.104 471.621 187.141 469.17 190.793C471.765 193.677 474.841 196.08 478.397 198.002V207.518C472.486 205.355 467.416 202.159 463.187 197.93C458.861 202.256 453.911 205.451 448.337 207.518V198.002ZM416.185 198.002C419.597 196.176 422.673 193.821 425.412 190.938C421.279 184.594 418.396 176.496 416.762 166.644H426.133C427.335 172.795 429.089 178.106 431.396 182.575C432.79 179.98 433.943 177.169 434.856 174.141C435.769 171.113 436.418 167.797 436.802 164.193H416.762V157.056H446.246V164.193C445.717 169.383 444.66 174.213 443.074 178.683C441.488 183.104 439.47 187.141 437.019 190.793C439.614 193.677 442.69 196.08 446.246 198.002V207.518C440.335 205.355 435.265 202.159 431.035 197.93C426.71 202.256 421.76 205.451 416.185 207.518V198.002Z" fill="white"/>
<path d="M493.947 208.311H483.926V161.165H490.486L492.577 156.263H503.03L500.939 161.165H539.362C540.42 161.165 541.429 161.381 542.39 161.814C543.351 162.198 544.192 162.751 544.913 163.472C545.634 164.193 546.211 165.034 546.643 165.995C547.076 166.956 547.292 167.966 547.292 169.023V200.381C547.292 201.487 547.076 202.52 546.643 203.481C546.211 204.442 545.634 205.283 544.913 206.004C544.192 206.725 543.351 207.302 542.39 207.734C541.429 208.119 540.42 208.311 539.362 208.311H529.991L533.163 201.174H534.965C535.638 201.174 536.19 200.958 536.623 200.525C537.055 200.093 537.272 199.564 537.272 198.939V170.537C537.272 169.864 537.055 169.311 536.623 168.879C536.19 168.446 535.638 168.23 534.965 168.23H493.947V208.311ZM533.307 193.244C533.307 194.35 533.091 195.383 532.658 196.344C532.274 197.305 531.721 198.146 531 198.867C530.279 199.588 529.438 200.165 528.477 200.597C527.516 200.982 526.483 201.174 525.377 201.174H497.912V173.42H533.307V193.244ZM523.287 180.485H507.932V194.037H521.052C521.677 194.037 522.205 193.821 522.638 193.389C523.07 192.956 523.287 192.427 523.287 191.803V180.485Z" fill="white"/>
<path d="M615.394 208.239H552.533V201.246H594.272L596.651 192.668H565.653H557.074H554.912L563.346 163.256H553.758V156.263H614.384V163.256H573.871L571.852 170.32H613.808L604.869 201.246H615.394V208.239ZM598.597 185.603L600.904 177.313H569.906L567.599 185.603H598.597Z" fill="white"/>
<path d="M622.437 165.274V158.21H647.379V165.274H622.437ZM627.411 178.899H620.49V171.834H649.326V178.899H636.35L631.736 199.588H639.882L637.936 189.352H646.37L649.974 208.239H641.54L641.252 206.581H630.15H624.96H621.211L627.411 178.899ZM684 201.463C684 202.424 683.808 203.313 683.423 204.13C683.087 204.947 682.606 205.668 681.982 206.292C681.357 206.869 680.612 207.35 679.747 207.734C678.93 208.071 678.065 208.239 677.152 208.239H675.061H667.78L670.231 201.967H672.754C673.427 201.967 673.98 201.751 674.412 201.318C674.845 200.886 675.061 200.333 675.061 199.66V168.374H667.564L660.355 208.239H651.416L658.625 168.374H649.974V161.309H659.923L660.788 156.263H669.727L668.861 161.309H675.061H684V168.374V201.463Z" fill="white"/>
<path d="M137.749 10.0508V3.2912H159.478V0H172.465V3.2912H194.443V10.0508H177.959V21.7757H168.219V10.0508H163.723V21.7757H153.733V10.0508H137.749ZM194.693 23.8327C185.202 22.4613 179.791 18.4159 178.459 11.6964H187.699C188.532 14.5762 190.863 16.976 194.693 18.8959V23.8327ZM137 23.8327V18.8959C140.497 17.6617 142.828 15.2619 143.993 11.6964H153.234C151.569 18.4159 146.158 22.4613 137 23.8327Z" fill="white"/>
<path fill-rule="evenodd" clip-rule="evenodd" d="M164.605 45.2748C164.632 45.167 164.646 45.0543 164.646 44.937V40.5694H138.8V35.4824H138.8V40.5692H164.646V44.9368C164.646 45.0542 164.632 45.1669 164.605 45.2748ZM150.668 51L150.668 51.0002H166.558C167.569 51.0002 168.514 50.8546 169.393 50.5634C170.273 50.2723 171.042 49.8698 171.701 49.3559C172.36 48.8421 172.877 48.2426 173.251 47.5575C173.344 47.3862 173.426 47.2117 173.496 47.034C173.426 47.2117 173.344 47.3861 173.251 47.5573C172.877 48.2424 172.36 48.8419 171.701 49.3557C171.042 49.8696 170.273 50.2721 169.393 50.5632C168.514 50.8544 167.569 51 166.558 51H150.668ZM173.811 40.5694H192.8V40.5692H173.811V40.5694ZM177.833 35.4822L184.163 28.4429V28.4427L177.833 35.4822H177.833ZM148.229 30.0872H172.69L172.69 30.087H148.229V25.0002H148.229V30.0872ZM174.611 45.348V41.3694H193.6V34.6824H179.628L184.963 28.7497V24.2002H147.429V30.8872H170.806L167.142 34.6824H138V41.3694H163.846V44.937C163.846 45.1023 163.79 45.2579 163.561 45.4364C163.325 45.6202 163.022 45.7298 162.602 45.7298H152.777L149.285 52H166.558C167.604 52 168.597 51.6707 169.531 51.3607C169.569 51.348 169.607 51.3354 169.645 51.3229C170.602 51.006 171.454 50.5627 172.193 49.9869C172.932 49.4106 173.523 48.7286 173.953 47.9405C174.391 47.1367 174.611 46.2684 174.611 45.348Z" fill="white"/>
<path d="M150.673 96.1786C154.075 97.7857 158.262 100.357 160.093 102.179L163.5 98C161.472 96.125 157.402 94.4464 154 93L150.673 96.1786ZM145 103.5C148.467 105 152.537 106.732 154.5 108.5L158.458 105.232C156.299 103.464 151.981 101.268 148.514 99.9286L145 103.5Z" fill="white"/>
</svg>
