<svg width="40" height="40" viewBox="0 0 40 40" fill="none" xmlns="http://www.w3.org/2000/svg">
<path d="M13.1792 13.3526C12.4855 13.3526 11.7919 13.815 11.7919 14.5087C11.7919 15.2023 12.4855 15.6647 13.1792 15.6647C13.8728 15.6647 14.3352 15.2023 14.3352 14.5087C14.3352 13.7861 13.8728 13.3526 13.1792 13.3526ZM22.5722 20.0578C22.1098 20.0578 21.6763 20.5491 21.6763 20.9827C21.6763 21.474 22.1387 21.9075 22.5722 21.9075C23.2659 21.9075 23.7283 21.4451 23.7283 20.9827C23.7283 20.5202 23.2659 20.0578 22.5722 20.0578ZM19.5953 15.6647C20.289 15.6647 20.7514 15.1734 20.7514 14.5087C20.7514 13.815 20.289 13.3526 19.5953 13.3526C18.9017 13.3526 18.2081 13.815 18.2081 14.5087C18.2081 15.2023 18.9017 15.6647 19.5953 15.6647ZM27.6011 20.0578C27.1387 20.0578 26.7052 20.5491 26.7052 20.9827C26.7052 21.474 27.1676 21.9075 27.6011 21.9075C28.2948 21.9075 28.7572 21.4451 28.7572 20.9827C28.7572 20.5202 28.2948 20.0578 27.6011 20.0578Z" fill="#28C445"/>
<path d="M19.9422 0.115601C8.93064 0.115601 0 9.04624 0 20.0578C0 31.0694 8.93064 40 19.9422 40C30.9538 40 39.8844 31.0694 39.8844 20.0578C39.8844 9.04624 30.9538 0.115601 19.9422 0.115601V0.115601ZM16.1561 25.1734C15 25.1734 14.0751 24.9422 12.9769 24.6821L9.79769 26.3006L10.6936 23.4971C8.4104 21.8786 7.02312 19.7688 7.02312 17.2543C7.02312 12.8324 11.1561 9.36416 16.1561 9.36416C20.6358 9.36416 24.5954 12.1387 25.3757 15.867C25.0867 15.8381 24.7977 15.8092 24.5087 15.8092C20.1734 15.867 16.763 19.1329 16.763 23.1792C16.763 23.8439 16.8786 24.4798 17.052 25.1156C16.763 25.1445 16.4451 25.1734 16.1561 25.1734V25.1734ZM29.6821 28.4104L30.3757 30.7225L27.8902 29.3353C26.9942 29.5665 26.0694 29.7977 25.1445 29.7977C20.7803 29.7977 17.341 26.7919 17.341 23.0636C17.3121 19.3642 20.7514 16.3584 25.0867 16.3584C29.2197 16.3584 32.8613 19.3931 32.8613 23.0925C32.8613 25.1734 31.5029 27.0231 29.6821 28.4104V28.4104Z" fill="#28C445"/>
</svg>
